<svg width="74" height="14" viewBox="0 0 74 14" fill="none" xmlns="http://www.w3.org/2000/svg">
<path d="M48.745 11.168C48.7263 11.168 48.675 11.168 48.591 11.168C48.507 11.168 48.4276 11.168 48.353 11.168C48.2783 11.168 48.227 11.168 48.199 11.168C46.5656 11.14 45.301 10.79 44.405 10.118C43.509 9.446 43.061 8.47533 43.061 7.206C43.061 5.95533 43.5043 5.00333 44.391 4.35C45.287 3.68733 46.5703 3.35133 48.241 3.342C48.2596 3.342 48.3063 3.342 48.381 3.342C48.465 3.342 48.5443 3.342 48.619 3.342C48.6936 3.342 48.7403 3.342 48.759 3.342C50.4483 3.342 51.755 3.66867 52.679 4.322C53.6123 4.97533 54.079 5.93667 54.079 7.206C54.079 8.494 53.6123 9.47867 52.679 10.16C51.755 10.832 50.4436 11.168 48.745 11.168ZM48.675 9.488C49.4496 9.488 50.0796 9.40867 50.565 9.25C51.0503 9.082 51.405 8.83 51.629 8.494C51.8623 8.14867 51.979 7.71933 51.979 7.206C51.979 6.71133 51.867 6.30533 51.643 5.988C51.419 5.66133 51.0596 5.41867 50.565 5.26C50.0796 5.10133 49.4496 5.022 48.675 5.022C48.647 5.022 48.591 5.022 48.507 5.022C48.423 5.022 48.367 5.022 48.339 5.022C47.5923 5.022 46.9856 5.106 46.519 5.274C46.0523 5.442 45.7116 5.68467 45.497 6.002C45.2823 6.31933 45.175 6.72067 45.175 7.206C45.175 7.71 45.2823 8.13 45.497 8.466C45.7116 8.802 46.0523 9.054 46.519 9.222C46.9856 9.39 47.5923 9.47867 48.339 9.488C48.367 9.488 48.423 9.488 48.507 9.488C48.591 9.488 48.647 9.488 48.675 9.488ZM47.569 13.716V0.611999H49.571V13.716H47.569Z" fill="#8570FF"/>
</svg>
